<svg width="34" height="34" viewBox="0 0 34 34" fill="none" xmlns="http://www.w3.org/2000/svg">
<path d="M18.4167 15.5835C19.2572 15.5835 20.0789 15.3342 20.7778 14.8672C21.4767 14.4002 22.0215 13.7365 22.3432 12.9599C22.6648 12.1833 22.749 11.3288 22.585 10.5044C22.421 9.67994 22.0162 8.92267 21.4219 8.32829C20.8275 7.73392 20.0702 7.32915 19.2458 7.16516C18.4214 7.00117 17.5668 7.08534 16.7903 7.40701C16.0137 7.72868 15.3499 8.27342 14.8829 8.97232C14.4159 9.67123 14.1667 10.4929 14.1667 11.3335C14.1667 12.4607 14.6144 13.5417 15.4115 14.3387C16.2085 15.1357 17.2895 15.5835 18.4167 15.5835ZM18.4167 9.91683C18.6969 9.91683 18.9708 9.99992 19.2037 10.1556C19.4367 10.3112 19.6183 10.5325 19.7255 10.7914C19.8327 11.0502 19.8608 11.3351 19.8061 11.6099C19.7514 11.8847 19.6165 12.1371 19.4184 12.3352C19.2203 12.5334 18.9679 12.6683 18.693 12.7229C18.4182 12.7776 18.1334 12.7496 17.8745 12.6423C17.6157 12.5351 17.3944 12.3535 17.2388 12.1206C17.0831 11.8876 17 11.6137 17 11.3335C17 10.9578 17.1493 10.5974 17.4149 10.3318C17.6806 10.0661 18.0409 9.91683 18.4167 9.91683ZM24.2392 15.3852C25.068 14.1966 25.5124 12.7825 25.5124 11.3335C25.5124 9.88451 25.068 8.47037 24.2392 7.28183C24.6466 7.15067 25.072 7.08375 25.5 7.0835C26.6272 7.0835 27.7082 7.53126 28.5052 8.32829C29.3022 9.12532 29.75 10.2063 29.75 11.3335C29.75 12.4607 29.3022 13.5417 28.5052 14.3387C27.7082 15.1357 26.6272 15.5835 25.5 15.5835C25.072 15.5832 24.6466 15.5163 24.2392 15.3852ZM18.4167 18.4168C9.91667 18.4168 9.91667 24.0835 9.91667 24.0835V26.9168H26.9167V24.0835C26.9167 24.0835 26.9167 18.4168 18.4167 18.4168ZM12.75 24.0835C12.75 23.6727 13.2033 21.2502 18.4167 21.2502C23.375 21.2502 23.9983 23.4602 24.0833 24.0835M34 24.0835V26.9168H29.75V24.0835C29.7169 23.0304 29.4744 21.9945 29.0365 21.0361C28.5987 20.0778 27.9744 19.2163 27.2 18.5018C34 19.196 34 24.0835 34 24.0835ZM11.3333 17.0002H7.08333V21.2502H4.25V17.0002H0V14.1668H4.25V9.91683H7.08333V14.1668H11.3333V17.0002Z" fill="black"/>
</svg>
