<svg width="34" height="34" viewBox="0 0 34 34" fill="none" xmlns="http://www.w3.org/2000/svg">
<path d="M18.4167 15.5833C19.2572 15.5833 20.0789 15.334 20.7778 14.867C21.4767 14.4 22.0215 13.7362 22.3432 12.9597C22.6648 12.1831 22.749 11.3285 22.585 10.5041C22.421 9.6797 22.0162 8.92242 21.4219 8.32805C20.8275 7.73368 20.0702 7.3289 19.2458 7.16492C18.4214 7.00093 17.5668 7.08509 16.7903 7.40677C16.0137 7.72844 15.3499 8.27317 14.8829 8.97208C14.4159 9.67099 14.1667 10.4927 14.1667 11.3333C14.1667 12.4604 14.6144 13.5414 15.4115 14.3385C16.2085 15.1355 17.2895 15.5833 18.4167 15.5833ZM18.4167 9.91659C18.6969 9.91659 18.9708 9.99967 19.2037 10.1553C19.4367 10.311 19.6183 10.5323 19.7255 10.7911C19.8327 11.05 19.8608 11.3348 19.8061 11.6096C19.7514 11.8844 19.6165 12.1369 19.4184 12.335C19.2203 12.5331 18.9679 12.668 18.693 12.7227C18.4182 12.7774 18.1334 12.7493 17.8745 12.6421C17.6157 12.5349 17.3944 12.3533 17.2388 12.1203C17.0831 11.8873 17 11.6134 17 11.3333C17 10.9575 17.1493 10.5972 17.4149 10.3315C17.6806 10.0658 18.0409 9.91659 18.4167 9.91659ZM24.2392 15.3849C25.068 14.1964 25.5124 12.7822 25.5124 11.3333C25.5124 9.88426 25.068 8.47013 24.2392 7.28159C24.6466 7.15042 25.072 7.08351 25.5 7.08325C26.6272 7.08325 27.7082 7.53102 28.5052 8.32805C29.3022 9.12508 29.75 10.2061 29.75 11.3333C29.75 12.4604 29.3022 13.5414 28.5052 14.3385C27.7082 15.1355 26.6272 15.5833 25.5 15.5833C25.072 15.583 24.6466 15.5161 24.2392 15.3849ZM18.4167 18.4166C9.91667 18.4166 9.91667 24.0833 9.91667 24.0833V26.9166H26.9167V24.0833C26.9167 24.0833 26.9167 18.4166 18.4167 18.4166ZM12.75 24.0833C12.75 23.6724 13.2033 21.2499 18.4167 21.2499C23.375 21.2499 23.9983 23.4599 24.0833 24.0833M34 24.0833V26.9166H29.75V24.0833C29.7169 23.0302 29.4744 21.9942 29.0365 21.0359C28.5987 20.0775 27.9744 19.216 27.2 18.5016C34 19.1958 34 24.0833 34 24.0833ZM11.3333 16.9999H7.08333V21.2499H4.25V16.9999H0V14.1666H4.25V9.91659H7.08333V14.1666H11.3333V16.9999Z" fill="#F9F9F9"/>
</svg>
