<svg width="36" height="36" viewBox="0 0 36 36" fill="none" xmlns="http://www.w3.org/2000/svg">
<path d="M31.5 28.5C31.5 29.2956 31.1839 30.0587 30.6213 30.6213C30.0587 31.1839 29.2956 31.5 28.5 31.5H7.5C6.70435 31.5 5.94129 31.1839 5.37868 30.6213C4.81607 30.0587 4.5 29.2956 4.5 28.5V7.5C4.5 6.70435 4.81607 5.94129 5.37868 5.37868C5.94129 4.81607 6.70435 4.5 7.5 4.5H28.5C30.165 4.5 31.5 5.85 31.5 7.5V28.5ZM19.5 27V14.25L24.75 19.5L26.88 17.37L18 8.49L9.12 17.37L11.25 19.5L16.5 14.25V27H19.5Z" fill="black"/>
</svg>
