<svg width="30" height="22" viewBox="0 0 30 22" fill="none" xmlns="http://www.w3.org/2000/svg">
<g clip-path="url(#clip0_138_1318)">
<path d="M6.87958 0H22.4492V22H6.875L6.87958 0Z" fill="white"/>
<path d="M-0.902954 0H6.87955V22H-0.902954V0ZM22.4491 0H30.2316V22H22.4537L22.4491 0ZM9.21246 10.6333L8.60288 10.835L11.417 13.31C11.6325 13.9379 11.3437 14.1258 11.1604 14.4558L14.2129 14.0708L14.1395 17.1417L14.7766 17.1279L14.6345 14.0754L17.6916 14.4421C17.5037 14.0433 17.3341 13.8325 17.5083 13.1954L20.3179 10.8579L19.8275 10.6746C19.4241 10.3629 20.0016 9.18042 20.0841 8.43333C20.0841 8.43333 18.4479 8.99708 18.3425 8.69917L17.9208 7.89708L16.4266 9.53792C16.2662 9.57917 16.1975 9.515 16.1562 9.3775L16.8437 5.94917L15.7529 6.56333C15.6612 6.60458 15.5695 6.56792 15.5145 6.4625L14.4604 4.35417L13.3787 6.545C13.2962 6.62292 13.2137 6.63208 13.1495 6.57708L12.1 5.995L12.7279 9.39125C12.6775 9.52875 12.5583 9.56542 12.4208 9.49208L10.9908 7.87417C10.8075 8.17208 10.6791 8.65792 10.4316 8.76792C10.1841 8.87333 9.35455 8.56167 8.79996 8.44708C8.99246 9.12542 9.57913 10.2621 9.21246 10.6333Z" fill="#D52B1E"/>
</g>
<defs>
<clipPath id="clip0_138_1318">
<rect width="29.3333" height="22" fill="white"/>
</clipPath>
</defs>
</svg>
