<svg width="28" height="29" viewBox="0 0 28 29" fill="none" xmlns="http://www.w3.org/2000/svg">
<path d="M13.9997 23.0234C8.85468 23.0234 4.66634 18.8351 4.66634 13.6901C4.66634 8.5451 8.85468 4.35677 13.9997 4.35677C19.1447 4.35677 23.333 8.5451 23.333 13.6901C23.333 18.8351 19.1447 23.0234 13.9997 23.0234ZM13.9997 2.02344C7.54801 2.02344 2.33301 7.23844 2.33301 13.6901C2.33301 20.1418 7.54801 25.3568 13.9997 25.3568C20.4513 25.3568 25.6663 20.1418 25.6663 13.6901C25.6663 7.23844 20.4513 2.02344 13.9997 2.02344ZM17.0213 9.02344L13.9997 12.0451L10.978 9.02344L9.33301 10.6684L12.3547 13.6901L9.33301 16.7118L10.978 18.3568L13.9997 15.3351L17.0213 18.3568L18.6663 16.7118L15.6447 13.6901L18.6663 10.6684L17.0213 9.02344Z" fill="black"/>
</svg>
