<svg width="34" height="34" viewBox="0 0 34 34" fill="none" xmlns="http://www.w3.org/2000/svg">
<path d="M17.7082 18.8415C17.4248 18.1332 17.4248 17.5665 17.5665 16.9998H4.24984V6.37484L12.7498 12.0415L21.2498 6.37484V8.78317C22.0998 8.35817 22.8082 8.35817 23.2332 8.35817C23.3748 8.2165 23.6582 8.07484 23.9415 7.93317V3.68317C24.0832 2.40817 23.0915 1.4165 21.8165 1.4165H3.68317C2.40817 1.4165 1.4165 2.40817 1.4165 3.68317V17.5665C1.4165 18.8415 2.40817 19.8332 3.68317 19.8332H18.2748C17.9915 19.5498 17.8498 19.2665 17.7082 18.8415ZM21.2498 4.24984L12.7498 9.9165L4.24984 4.24984H21.2498ZM32.0165 14.0248C31.7332 13.1748 31.0248 13.0332 30.5998 12.6082C30.3165 12.1832 30.3165 11.3332 29.6082 10.9082C28.8998 10.3415 28.1915 10.6248 27.6248 10.4832C27.0582 10.3415 26.6332 9.63317 25.7832 9.63317C24.9332 9.63317 24.5082 10.1998 23.9415 10.4832C23.3748 10.6248 22.6665 10.3415 21.9582 10.9082C21.2498 11.3332 21.3915 12.0415 20.9665 12.6082C20.5415 13.0332 19.8332 13.3165 19.5498 14.0248C19.2665 14.8748 19.8332 15.4415 19.8332 16.0082C19.8332 16.5748 19.2665 17.1415 19.5498 17.9915C19.8332 18.8415 20.5415 18.9832 20.9665 19.4082C21.2498 19.8332 21.2498 20.6832 21.9582 21.1082C22.6665 21.6748 23.3748 21.3915 23.9415 21.5332C24.5082 21.6748 24.9332 22.3832 25.7832 22.3832C26.6332 22.3832 27.0582 21.8165 27.6248 21.5332C28.1915 21.3915 28.8998 21.6748 29.6082 21.1082C30.3165 20.5415 30.3165 19.8332 30.5998 19.4082C31.0248 18.9832 31.7332 18.6998 32.0165 17.9915C32.2998 17.1415 31.7332 16.5748 31.7332 16.0082C31.7332 15.4415 32.2998 14.8748 32.0165 14.0248ZM25.7832 20.3998C23.3748 20.3998 21.5332 18.4165 21.5332 16.1498C21.5332 13.8832 23.5165 11.8998 25.7832 11.8998C28.0498 11.8998 30.0332 13.8832 30.0332 16.1498C30.0332 18.4165 28.1915 20.3998 25.7832 20.3998ZM27.9082 16.0082C27.9082 17.1415 26.9165 18.1332 25.7832 18.1332C24.6498 18.1332 23.6582 17.1415 23.6582 16.0082C23.6582 14.8748 24.6498 13.8832 25.7832 13.8832C26.9165 13.8832 27.9082 14.8748 27.9082 16.0082ZM27.6248 24.2248L26.9165 28.0498L26.0665 32.4415L23.2332 29.7498L19.8332 31.3082L21.2498 23.2332C21.8165 23.5165 22.5248 23.6582 23.2332 23.6582C23.6582 23.9415 24.2248 24.2248 24.6498 24.3665C24.9332 24.5082 25.3582 24.5082 25.7832 24.5082C26.4915 24.6498 27.0582 24.5082 27.6248 24.2248ZM32.1582 27.6248L29.3248 26.6332L29.8915 23.5165L30.7415 23.0915L30.8832 22.9498L32.1582 27.6248Z" fill="black"/>
</svg>
