<svg width="34" height="34" viewBox="0 0 34 34" fill="none" xmlns="http://www.w3.org/2000/svg">
<path d="M17.425 12.6508L13.9967 9.20833H21.9583V14.1667H24.0833V7.08333H13.9967L17.425 3.64083L15.9233 2.125L9.91667 8.14583L15.9233 14.1667L17.425 12.6508ZM17 19.8333C16.1594 19.8333 15.3377 20.0826 14.6388 20.5496C13.9399 21.0166 13.3952 21.6803 13.0735 22.4569C12.7518 23.2335 12.6677 24.0881 12.8317 24.9125C12.9956 25.7369 13.4004 26.4942 13.9948 27.0885C14.5892 27.6829 15.3464 28.0877 16.1709 28.2517C16.9953 28.4157 17.8498 28.3315 18.6264 28.0098C19.403 27.6882 20.0667 27.1434 20.5337 26.4445C21.0007 25.7456 21.25 24.9239 21.25 24.0833C21.25 22.9562 20.8022 21.8752 20.0052 21.0781C19.2082 20.2811 18.1272 19.8333 17 19.8333ZM4.25 15.5833V32.5833H29.75V15.5833M26.9167 26.9167C26.1652 26.9167 25.4445 27.2152 24.9132 27.7465C24.3818 28.2779 24.0833 28.9986 24.0833 29.75H9.91667C9.91667 28.9986 9.61816 28.2779 9.0868 27.7465C8.55545 27.2152 7.83478 26.9167 7.08333 26.9167V21.25C7.83478 21.25 8.55545 20.9515 9.0868 20.4201C9.61816 19.8888 9.91667 19.1681 9.91667 18.4167H24.0833C24.0833 19.1681 24.3818 19.8888 24.9132 20.4201C25.4445 20.9515 26.1652 21.25 26.9167 21.25V26.9167Z" fill="black"/>
</svg>
