<svg width="34" height="34" viewBox="0 0 34 34" fill="none" xmlns="http://www.w3.org/2000/svg">
<path d="M17.7083 18.8417C17.425 18.1334 17.425 17.5667 17.5666 17.0001H4.24996V6.37508L12.75 12.0417L21.25 6.37508V8.78341C22.1 8.35841 22.8083 8.35841 23.2333 8.35841C23.375 8.21675 23.6583 8.07508 23.9416 7.93341V3.68341C24.0833 2.40841 23.0916 1.41675 21.8166 1.41675H3.68329C2.40829 1.41675 1.41663 2.40841 1.41663 3.68341V17.5667C1.41663 18.8417 2.40829 19.8334 3.68329 19.8334H18.275C17.9916 19.5501 17.85 19.2667 17.7083 18.8417ZM21.25 4.25008L12.75 9.91675L4.24996 4.25008H21.25ZM32.0166 14.0251C31.7333 13.1751 31.025 13.0334 30.6 12.6084C30.3166 12.1834 30.3166 11.3334 29.6083 10.9084C28.9 10.3417 28.1916 10.6251 27.625 10.4834C27.0583 10.3417 26.6333 9.63341 25.7833 9.63341C24.9333 9.63341 24.5083 10.2001 23.9416 10.4834C23.375 10.6251 22.6666 10.3417 21.9583 10.9084C21.25 11.3334 21.3916 12.0417 20.9666 12.6084C20.5416 13.0334 19.8333 13.3167 19.55 14.0251C19.2666 14.8751 19.8333 15.4417 19.8333 16.0084C19.8333 16.5751 19.2666 17.1417 19.55 17.9917C19.8333 18.8417 20.5416 18.9834 20.9666 19.4084C21.25 19.8334 21.25 20.6834 21.9583 21.1084C22.6666 21.6751 23.375 21.3917 23.9416 21.5334C24.5083 21.6751 24.9333 22.3834 25.7833 22.3834C26.6333 22.3834 27.0583 21.8167 27.625 21.5334C28.1916 21.3917 28.9 21.6751 29.6083 21.1084C30.3166 20.5417 30.3166 19.8334 30.6 19.4084C31.025 18.9834 31.7333 18.7001 32.0166 17.9917C32.3 17.1417 31.7333 16.5751 31.7333 16.0084C31.7333 15.4417 32.3 14.8751 32.0166 14.0251ZM25.7833 20.4001C23.375 20.4001 21.5333 18.4167 21.5333 16.1501C21.5333 13.8834 23.5166 11.9001 25.7833 11.9001C28.05 11.9001 30.0333 13.8834 30.0333 16.1501C30.0333 18.4167 28.1916 20.4001 25.7833 20.4001ZM27.9083 16.0084C27.9083 17.1417 26.9166 18.1334 25.7833 18.1334C24.65 18.1334 23.6583 17.1417 23.6583 16.0084C23.6583 14.8751 24.65 13.8834 25.7833 13.8834C26.9166 13.8834 27.9083 14.8751 27.9083 16.0084ZM27.625 24.2251L26.9166 28.0501L26.0666 32.4417L23.2333 29.7501L19.8333 31.3084L21.25 23.2334C21.8166 23.5167 22.525 23.6584 23.2333 23.6584C23.6583 23.9417 24.225 24.2251 24.65 24.3667C24.9333 24.5084 25.3583 24.5084 25.7833 24.5084C26.4916 24.6501 27.0583 24.5084 27.625 24.2251ZM32.1583 27.6251L29.325 26.6334L29.8916 23.5167L30.7416 23.0917L30.8833 22.9501L32.1583 27.6251Z" fill="white"/>
</svg>
