<svg width="23" height="24" viewBox="0 0 23 24" fill="none" xmlns="http://www.w3.org/2000/svg">
<path d="M17.3746 12L18.5821 10.74C19.0038 10.3 19.5404 10.06 20.125 10V9L14.375 3H4.79167C3.72792 3 2.875 3.89 2.875 5V19C2.875 20.1 3.72792 21 4.79167 21H10.5417V19.13L10.6663 19H4.79167V5H11.5V12H17.3746ZM13.4167 4.5L18.6875 10H13.4167V4.5ZM18.3329 13.83L20.2879 15.87L14.4133 22H12.4583V19.96L18.3329 13.83ZM21.8979 14.19L20.9588 15.17L19.0038 13.13L19.9429 12.15C20.125 11.95 20.4413 11.95 20.6329 12.15L21.8979 13.47C22.0896 13.67 22.0896 14 21.8979 14.19Z" fill="black"/>
</svg>
