<svg width="34" height="34" viewBox="0 0 34 34" fill="none" xmlns="http://www.w3.org/2000/svg">
<path d="M26.9167 4.24984H25.5V1.4165H22.6667V4.24984H11.3333V1.4165H8.5V4.24984H7.08333C5.525 4.24984 4.25 5.52484 4.25 7.08317V26.9165C4.25 28.489 5.525 29.7498 7.08333 29.7498H26.9167C28.4892 29.7498 29.75 28.489 29.75 26.9165V7.08317C29.75 5.52484 28.4892 4.24984 26.9167 4.24984ZM26.9167 26.9165H7.08333V12.7498H26.9167V26.9165ZM7.08333 9.9165V7.08317H26.9167V9.9165H7.08333ZM14.96 24.7348L23.375 16.334L21.8592 14.8323L14.96 21.7315L11.9708 18.7423L10.4692 20.244L14.96 24.7348Z" fill="black"/>
</svg>
