<svg width="34" height="34" viewBox="0 0 34 34" fill="none" xmlns="http://www.w3.org/2000/svg">
<path d="M26.9167 4.25008H25.5V1.41675H22.6667V4.25008H11.3333V1.41675H8.5V4.25008H7.08333C5.525 4.25008 4.25 5.52508 4.25 7.08342V26.9167C4.25 28.4892 5.525 29.7501 7.08333 29.7501H26.9167C28.4892 29.7501 29.75 28.4892 29.75 26.9167V7.08342C29.75 5.52508 28.4892 4.25008 26.9167 4.25008ZM26.9167 26.9167H7.08333V12.7501H26.9167V26.9167ZM7.08333 9.91675V7.08342H26.9167V9.91675H7.08333ZM14.96 24.7351L23.375 16.3342L21.8592 14.8326L14.96 21.7317L11.9708 18.7426L10.4692 20.2442L14.96 24.7351Z" fill="#F9F9F9"/>
</svg>
