<svg width="34" height="34" viewBox="0 0 34 34" fill="none" xmlns="http://www.w3.org/2000/svg">
<path d="M17 2.83337C16.7167 2.83337 16.4333 2.97504 16.15 3.11671L4.95833 9.35004C4.53333 9.63337 4.25 10.0584 4.25 10.625V23.375C4.25 23.9417 4.53333 24.3667 4.95833 24.65L16.15 30.8834C16.4333 31.025 16.7167 31.1667 17 31.1667C17.2833 31.1667 17.5667 31.025 17.85 30.8834L19.125 30.175C18.7 29.325 18.5583 28.3334 18.4167 27.3417V17.85L26.9167 13.0334V18.4167C27.9083 18.4167 28.9 18.5584 29.75 18.8417V10.625C29.75 10.0584 29.4667 9.63337 29.0417 9.35004L17.85 3.11671C17.5667 2.97504 17.2833 2.83337 17 2.83337ZM17 5.95004L25.5 10.625L22.6667 12.1834L14.3083 7.36671L17 5.95004ZM11.475 8.92504L19.8333 13.8834L17 15.4417L8.5 10.625L11.475 8.92504ZM7.08333 13.0334L15.5833 17.85V27.3417L7.08333 22.525V13.0334ZM30.175 22.3834L25.075 27.4834L22.8083 25.2167L21.25 26.9167L25.2167 31.1667L32.0167 24.3667L30.175 22.3834Z" fill="black"/>
</svg>
