<svg width="34" height="34" viewBox="0 0 34 34" fill="none" xmlns="http://www.w3.org/2000/svg">
<path d="M17 2.83325C16.7167 2.83325 16.4333 2.97492 16.15 3.11659L4.95833 9.34992C4.53333 9.63325 4.25 10.0583 4.25 10.6249V23.3749C4.25 23.9416 4.53333 24.3666 4.95833 24.6499L16.15 30.8833C16.4333 31.0249 16.7167 31.1666 17 31.1666C17.2833 31.1666 17.5667 31.0249 17.85 30.8833L19.125 30.1749C18.7 29.3249 18.5583 28.3333 18.4167 27.3416V17.8499L26.9167 13.0333V18.4166C27.9083 18.4166 28.9 18.5583 29.75 18.8416V10.6249C29.75 10.0583 29.4667 9.63325 29.0417 9.34992L17.85 3.11659C17.5667 2.97492 17.2833 2.83325 17 2.83325ZM17 5.94992L25.5 10.6249L22.6667 12.1833L14.3083 7.36659L17 5.94992ZM11.475 8.92492L19.8333 13.8833L17 15.4416L8.5 10.6249L11.475 8.92492ZM7.08333 13.0333L15.5833 17.8499V27.3416L7.08333 22.5249V13.0333ZM30.175 22.3833L25.075 27.4833L22.8083 25.2166L21.25 26.9166L25.2167 31.1666L32.0167 24.3666L30.175 22.3833Z" fill="white"/>
</svg>
