<svg width="34" height="34" viewBox="0 0 34 34" fill="none" xmlns="http://www.w3.org/2000/svg">
<path d="M31.1667 16.9999V28.3333C31.1667 29.0847 30.8682 29.8054 30.3369 30.3367C29.8055 30.8681 29.0849 31.1666 28.3334 31.1666H5.66675C4.9153 31.1666 4.19463 30.8681 3.66328 30.3367C3.13193 29.8054 2.83341 29.0847 2.83341 28.3333V16.9999C2.45769 16.9999 2.09736 16.8507 1.83168 16.585C1.566 16.3193 1.41675 15.959 1.41675 15.5833V11.3333C1.41675 10.5818 1.71526 9.86114 2.24661 9.32978C2.77797 8.79843 3.49863 8.49992 4.25008 8.49992H8.74091C8.58508 8.06075 8.50008 7.57909 8.50008 7.08325C8.50008 5.95608 8.94785 4.87508 9.74488 4.07805C10.5419 3.28102 11.6229 2.83325 12.7501 2.83325C14.1667 2.83325 15.4134 3.54159 16.1926 4.58992V4.57575L17.0001 5.66659L17.8076 4.57575V4.58992C18.5867 3.54159 19.8334 2.83325 21.2501 2.83325C22.3773 2.83325 23.4583 3.28102 24.2553 4.07805C25.0523 4.87508 25.5001 5.95608 25.5001 7.08325C25.5001 7.57909 25.4151 8.06075 25.2592 8.49992H29.7501C30.5015 8.49992 31.2222 8.79843 31.7535 9.32978C32.2849 9.86114 32.5834 10.5818 32.5834 11.3333V15.5833C32.5834 15.959 32.4342 16.3193 32.1685 16.585C31.9028 16.8507 31.5425 16.9999 31.1667 16.9999ZM5.66675 28.3333H15.5834V16.9999H5.66675V28.3333ZM28.3334 28.3333V16.9999H18.4167V28.3333H28.3334ZM12.7501 5.66659C12.3744 5.66659 12.014 5.81584 11.7483 6.08152C11.4827 6.34719 11.3334 6.70753 11.3334 7.08325C11.3334 7.45898 11.4827 7.81931 11.7483 8.08499C12.014 8.35066 12.3744 8.49992 12.7501 8.49992C13.1258 8.49992 13.4861 8.35066 13.7518 8.08499C14.0175 7.81931 14.1667 7.45898 14.1667 7.08325C14.1667 6.70753 14.0175 6.34719 13.7518 6.08152C13.4861 5.81584 13.1258 5.66659 12.7501 5.66659ZM21.2501 5.66659C20.8744 5.66659 20.514 5.81584 20.2483 6.08152C19.9827 6.34719 19.8334 6.70753 19.8334 7.08325C19.8334 7.45898 19.9827 7.81931 20.2483 8.08499C20.514 8.35066 20.8744 8.49992 21.2501 8.49992C21.6258 8.49992 21.9861 8.35066 22.2518 8.08499C22.5175 7.81931 22.6667 7.45898 22.6667 7.08325C22.6667 6.70753 22.5175 6.34719 22.2518 6.08152C21.9861 5.81584 21.6258 5.66659 21.2501 5.66659ZM4.25008 11.3333V14.1666H15.5834V11.3333H4.25008ZM18.4167 11.3333V14.1666H29.7501V11.3333H18.4167Z" fill="#F9F9F9"/>
</svg>
