<svg width="34" height="34" viewBox="0 0 34 34" fill="none" xmlns="http://www.w3.org/2000/svg">
<path d="M31.1665 17.0002V28.3335C31.1665 29.0849 30.868 29.8056 30.3366 30.337C29.8053 30.8683 29.0846 31.1668 28.3332 31.1668H5.6665C4.91506 31.1668 4.19439 30.8683 3.66303 30.337C3.13168 29.8056 2.83317 29.0849 2.83317 28.3335V17.0002C2.45745 17.0002 2.09711 16.8509 1.83144 16.5852C1.56576 16.3196 1.4165 15.9592 1.4165 15.5835V11.3335C1.4165 10.582 1.71501 9.86138 2.24637 9.33003C2.77772 8.79867 3.49839 8.50016 4.24984 8.50016H8.74067C8.58484 8.061 8.49984 7.57933 8.49984 7.0835C8.49984 5.95633 8.9476 4.87532 9.74463 4.07829C10.5417 3.28126 11.6227 2.8335 12.7498 2.8335C14.1665 2.8335 15.4132 3.54183 16.1923 4.59016V4.576L16.9998 5.66683L17.8073 4.576V4.59016C18.5865 3.54183 19.8332 2.8335 21.2498 2.8335C22.377 2.8335 23.458 3.28126 24.255 4.07829C25.0521 4.87532 25.4998 5.95633 25.4998 7.0835C25.4998 7.57933 25.4148 8.061 25.259 8.50016H29.7498C30.5013 8.50016 31.222 8.79867 31.7533 9.33003C32.2847 9.86138 32.5832 10.582 32.5832 11.3335V15.5835C32.5832 15.9592 32.4339 16.3196 32.1682 16.5852C31.9026 16.8509 31.5422 17.0002 31.1665 17.0002ZM5.6665 28.3335H15.5832V17.0002H5.6665V28.3335ZM28.3332 28.3335V17.0002H18.4165V28.3335H28.3332ZM12.7498 5.66683C12.3741 5.66683 12.0138 5.81609 11.7481 6.08176C11.4824 6.34744 11.3332 6.70777 11.3332 7.0835C11.3332 7.45922 11.4824 7.81955 11.7481 8.08523C12.0138 8.35091 12.3741 8.50016 12.7498 8.50016C13.1256 8.50016 13.4859 8.35091 13.7516 8.08523C14.0172 7.81955 14.1665 7.45922 14.1665 7.0835C14.1665 6.70777 14.0172 6.34744 13.7516 6.08176C13.4859 5.81609 13.1256 5.66683 12.7498 5.66683ZM21.2498 5.66683C20.8741 5.66683 20.5138 5.81609 20.2481 6.08176C19.9824 6.34744 19.8332 6.70777 19.8332 7.0835C19.8332 7.45922 19.9824 7.81955 20.2481 8.08523C20.5138 8.35091 20.8741 8.50016 21.2498 8.50016C21.6256 8.50016 21.9859 8.35091 22.2516 8.08523C22.5172 7.81955 22.6665 7.45922 22.6665 7.0835C22.6665 6.70777 22.5172 6.34744 22.2516 6.08176C21.9859 5.81609 21.6256 5.66683 21.2498 5.66683ZM4.24984 11.3335V14.1668H15.5832V11.3335H4.24984ZM18.4165 11.3335V14.1668H29.7498V11.3335H18.4165Z" fill="black"/>
</svg>
