<svg width="23" height="24" viewBox="0 0 23 24" fill="none" xmlns="http://www.w3.org/2000/svg">
<g clip-path="url(#clip0_374_2209)">
<path d="M11.5958 18.55L11.5 18.65L11.3945 18.55C6.84246 14.24 3.83329 11.39 3.83329 8.5C3.83329 6.5 5.27079 5 7.18746 5C8.66329 5 10.1008 6 10.6087 7.36H12.3912C12.8991 6 14.3366 5 15.8125 5C17.7291 5 19.1666 6.5 19.1666 8.5C19.1666 11.39 16.1575 14.24 11.5958 18.55ZM15.8125 3C14.145 3 12.5445 3.81 11.5 5.08C10.4554 3.81 8.85496 3 7.18746 3C4.23579 3 1.91663 5.41 1.91663 8.5C1.91663 12.27 5.17496 15.36 10.1104 20.03L11.5 21.35L12.8895 20.03C17.825 15.36 21.0833 12.27 21.0833 8.5C21.0833 5.41 18.7641 3 15.8125 3Z" fill="black"/>
</g>
<defs>
<clipPath id="clip0_374_2209">
<rect width="23" height="24" fill="white"/>
</clipPath>
</defs>
</svg>
