<svg width="34" height="34" viewBox="0 0 34 34" fill="none" xmlns="http://www.w3.org/2000/svg">
<path d="M13.9116 17.7082C13.94 17.4673 13.9683 17.2407 13.9683 16.9998C13.9683 16.759 13.94 16.5323 13.9116 16.2915L15.4416 15.144C15.5833 15.0448 15.5833 14.8748 15.5266 14.6907L14.0675 12.2398C13.9825 12.084 13.7841 12.0415 13.6283 12.084L11.815 12.7923C11.4325 12.509 11.0216 12.2823 10.5825 12.0982L10.2991 10.214C10.2991 10.044 10.1433 9.9165 9.95914 9.9165H7.08331C6.87081 9.9165 6.71497 10.044 6.68664 10.214L6.37497 12.084C5.96414 12.254 5.55331 12.509 5.17081 12.7498L3.35747 12.0415C3.18747 11.999 3.00331 12.0415 2.91831 12.2257L1.45914 14.6765C1.37414 14.8748 1.41664 15.0307 1.55831 15.144L3.08831 16.2915C3.05997 16.5323 3.04581 16.7732 3.04581 16.9998C3.04581 17.2407 3.07414 17.4673 3.10247 17.7082L1.55831 18.8698C1.41664 18.969 1.41664 19.1673 1.47331 19.3232L2.93247 21.774C3.01747 21.9582 3.21581 21.9582 3.37164 21.9582L5.18497 21.2498C5.56747 21.5048 5.97831 21.7315 6.41747 21.9157L6.70081 23.7857C6.71497 23.9557 6.87081 24.0832 7.08331 24.0832H9.97331C10.1575 24.0832 10.3133 23.9557 10.3275 23.7857L10.625 21.9157C11.05 21.7457 11.4608 21.4907 11.8433 21.2498L13.6566 21.9582C13.8266 22.0007 14.0108 21.9582 14.0958 21.774L15.5833 19.3232C15.64 19.1673 15.5833 18.9832 15.47 18.8698L13.9116 17.7082ZM8.49997 19.479C7.08331 19.479 5.94997 18.374 5.94997 16.9998C5.94997 15.6257 7.08331 14.5207 8.49997 14.5207C9.91664 14.5207 11.05 15.6257 11.05 16.9998C11.05 18.374 9.91664 19.479 8.49997 19.479ZM24.0833 1.4165H9.91664C9.16519 1.4165 8.44452 1.71501 7.91317 2.24637C7.38182 2.77772 7.08331 3.49839 7.08331 4.24984V8.49984H9.91664V5.6665H24.0833V28.3332H9.91664V25.4998H7.08331V29.7498C7.08331 30.5013 7.38182 31.222 7.91317 31.7533C8.44452 32.2847 9.16519 32.5832 9.91664 32.5832H24.0833C24.8348 32.5832 25.5554 32.2847 26.0868 31.7533C26.6181 31.222 26.9166 30.5013 26.9166 29.7498V4.24984C26.9166 3.49839 26.6181 2.77772 26.0868 2.24637C25.5554 1.71501 24.8348 1.4165 24.0833 1.4165Z" fill="black"/>
</svg>
