<svg width="34" height="34" viewBox="0 0 34 34" fill="none" xmlns="http://www.w3.org/2000/svg">
<path d="M13.9116 17.7084C13.94 17.4676 13.9683 17.2409 13.9683 17.0001C13.9683 16.7592 13.94 16.5326 13.9116 16.2917L15.4416 15.1442C15.5833 15.0451 15.5833 14.8751 15.5266 14.6909L14.0675 12.2401C13.9825 12.0842 13.7841 12.0417 13.6283 12.0842L11.815 12.7926C11.4325 12.5092 11.0216 12.2826 10.5825 12.0984L10.2991 10.2142C10.2991 10.0442 10.1433 9.91675 9.95914 9.91675H7.08331C6.87081 9.91675 6.71497 10.0442 6.68664 10.2142L6.37497 12.0842C5.96414 12.2542 5.55331 12.5092 5.17081 12.7501L3.35747 12.0417C3.18747 11.9992 3.00331 12.0417 2.91831 12.2259L1.45914 14.6767C1.37414 14.8751 1.41664 15.0309 1.55831 15.1442L3.08831 16.2917C3.05997 16.5326 3.04581 16.7734 3.04581 17.0001C3.04581 17.2409 3.07414 17.4676 3.10247 17.7084L1.55831 18.8701C1.41664 18.9692 1.41664 19.1676 1.47331 19.3234L2.93247 21.7742C3.01747 21.9584 3.21581 21.9584 3.37164 21.9584L5.18497 21.2501C5.56747 21.5051 5.97831 21.7317 6.41747 21.9159L6.70081 23.7859C6.71497 23.9559 6.87081 24.0834 7.08331 24.0834H9.97331C10.1575 24.0834 10.3133 23.9559 10.3275 23.7859L10.625 21.9159C11.05 21.7459 11.4608 21.4909 11.8433 21.2501L13.6566 21.9584C13.8266 22.0009 14.0108 21.9584 14.0958 21.7742L15.5833 19.3234C15.64 19.1676 15.5833 18.9834 15.47 18.8701L13.9116 17.7084ZM8.49997 19.4792C7.08331 19.4792 5.94997 18.3742 5.94997 17.0001C5.94997 15.6259 7.08331 14.5209 8.49997 14.5209C9.91664 14.5209 11.05 15.6259 11.05 17.0001C11.05 18.3742 9.91664 19.4792 8.49997 19.4792ZM24.0833 1.41675H9.91664C9.16519 1.41675 8.44452 1.71526 7.91317 2.24661C7.38182 2.77797 7.08331 3.49863 7.08331 4.25008V8.50008H9.91664V5.66675H24.0833V28.3334H9.91664V25.5001H7.08331V29.7501C7.08331 30.5015 7.38182 31.2222 7.91317 31.7535C8.44452 32.2849 9.16519 32.5834 9.91664 32.5834H24.0833C24.8348 32.5834 25.5554 32.2849 26.0868 31.7535C26.6181 31.2222 26.9166 30.5015 26.9166 29.7501V4.25008C26.9166 3.49863 26.6181 2.77797 26.0868 2.24661C25.5554 1.71526 24.8348 1.41675 24.0833 1.41675Z" fill="#F9F9F9"/>
</svg>
