<svg width="34" height="34" viewBox="0 0 34 34" fill="none" xmlns="http://www.w3.org/2000/svg">
<path d="M21.25 24.0834H25.5V19.8334H28.3334V24.0834H32.5834V26.9167H28.3334V31.1667H25.5V26.9167H21.25V24.0834ZM12.75 9.20837C14.7334 9.20837 16.2917 10.7667 16.2917 12.75C16.2917 14.7334 14.7334 16.2917 12.75 16.2917C10.7667 16.2917 9.20837 14.7334 9.20837 12.75C9.20837 10.7667 10.7667 9.20837 12.75 9.20837ZM12.75 2.83337C18.275 2.83337 22.6667 7.22504 22.6667 12.75C22.6667 20.1167 12.75 31.1667 12.75 31.1667C12.75 31.1667 2.83337 20.1167 2.83337 12.75C2.83337 7.22504 7.22504 2.83337 12.75 2.83337ZM12.75 5.66671C8.78337 5.66671 5.66671 8.78337 5.66671 12.75C5.66671 14.1667 5.66671 17 12.75 26.4917C19.8334 17 19.8334 14.1667 19.8334 12.75C19.8334 8.78337 16.7167 5.66671 12.75 5.66671Z" fill="black"/>
</svg>
