<svg width="315" height="171" viewBox="0 0 315 171" fill="none" xmlns="http://www.w3.org/2000/svg">
<path d="M35.456 133.472C28.16 133.472 22.848 131.189 19.52 126.624C16.192 122.016 15.0613 115.573 16.128 107.296L20.032 75.68H8.576L9.408 68.768L21.184 65.824L23.232 49.248L36.544 45.152L28.8 108.32C28.2453 112.715 28.736 116.32 30.272 119.136C31.808 121.952 34.1333 123.36 37.248 123.36C38.784 123.36 40.3413 123.232 41.92 122.976C43.4987 122.677 45.44 122.165 47.744 121.44L49.728 130.464C46.3573 131.531 43.648 132.299 41.6 132.768C39.552 133.237 37.504 133.472 35.456 133.472ZM48.704 75.68C46.5707 75.68 44.8 75.232 43.392 74.336C42.0267 73.3973 40.96 72.1813 40.192 70.688C39.424 69.152 38.8693 67.5307 38.528 65.824H56.704L55.552 75.68H48.704ZM93.772 133.408C88.78 133.408 84.428 132.491 80.716 130.656C77.004 128.821 73.9747 126.283 71.628 123.04C69.324 119.797 67.724 116.064 66.828 111.84C65.9747 107.573 65.8253 103.029 66.38 98.208C67.2333 91.2533 69.3027 85.2587 72.588 80.224C75.916 75.1467 80.1187 71.2427 85.196 68.512C90.316 65.7813 96.076 64.416 102.476 64.416C106.956 64.416 110.817 65.376 114.06 67.296C117.345 69.216 119.863 71.8613 121.612 75.232C123.404 78.6027 124.279 82.464 124.236 86.816C124.236 91.1253 123.148 95.6907 120.972 100.512H84.236C85.4733 97.952 87.0307 95.7973 88.908 94.048C90.7853 92.2987 93.132 91.424 95.948 91.424H110.86C111.628 88.3093 111.649 85.4933 110.924 82.976C110.199 80.416 108.876 78.368 106.956 76.832C105.079 75.296 102.775 74.528 100.044 74.528C96.8013 74.528 93.772 75.424 90.956 77.216C88.14 78.9653 85.7507 81.6107 83.788 85.152C81.8253 88.6507 80.524 92.9813 79.884 98.144C79.244 103.136 79.5427 107.509 80.78 111.264C82.06 115.019 84.044 117.941 86.732 120.032C89.4627 122.08 92.7267 123.104 96.524 123.104C99.468 123.104 102.327 122.784 105.1 122.144C107.916 121.461 111.265 120.224 115.148 118.432L117.516 127.84C112.993 129.931 108.727 131.381 104.716 132.192C100.748 133.003 97.1 133.408 93.772 133.408ZM183.667 132L170.611 100.704L169.651 97.888L167.411 100.256L158.771 108.704C158.216 105.248 158.579 101.557 159.859 97.632C161.182 93.7067 163.336 90.2293 166.323 87.2L187.187 65.824L202.163 66.72L179.059 88.992L198.899 132H183.667ZM136.179 132L148.083 34.976L161.459 35.872L149.683 132H136.179ZM253.334 132L259.158 84.192C259.499 81.4613 259.158 79.2213 258.134 77.472C257.153 75.7227 255.403 74.848 252.886 74.848C251.905 74.848 251.009 74.9547 250.198 75.168C249.43 75.3813 248.449 75.5947 247.254 75.808C244.865 76.2347 242.753 76.0213 240.918 75.168C239.126 74.272 237.526 72.8853 236.118 71.008C240.897 68.4053 244.886 66.656 248.086 65.76C251.286 64.864 254.123 64.416 256.598 64.416C259.883 64.416 262.87 65.0773 265.558 66.4C268.246 67.7227 270.273 69.8773 271.638 72.864C273.046 75.8507 273.43 79.904 272.79 85.024L267.094 132H253.334ZM211.542 132L217.558 82.592C217.814 80.2027 217.942 77.664 217.942 74.976C217.985 72.288 217.835 69.4507 217.494 66.464L228.374 65.824C230.166 68.128 231.233 70.4107 231.574 72.672C231.958 74.9333 231.979 77.344 231.638 79.904L225.366 132H211.542ZM287.295 132L295.359 65.824H309.183L301.119 132H287.295ZM303.551 55.072C301.162 55.072 299.263 54.2613 297.855 52.64C296.447 51.0187 295.871 49.0133 296.127 46.624C296.468 44.1493 297.556 42.1013 299.391 40.48C301.226 38.816 303.338 37.984 305.727 37.984C308.159 37.984 310.058 38.816 311.423 40.48C312.831 42.1013 313.364 44.1493 313.023 46.624C312.767 49.0133 311.743 51.0187 309.951 52.64C308.159 54.2613 306.026 55.072 303.551 55.072Z" fill="white"/>
<circle cx="268" cy="46" r="10" fill="#363636"/>
<circle cx="305" cy="46" r="10" fill="#FF5207"/>
<circle cx="231" cy="46" r="10" fill="#D9D9D9"/>
</svg>
