<svg width="34" height="34" viewBox="0 0 34 34" fill="none" xmlns="http://www.w3.org/2000/svg">
<path d="M30.331 16.4052L17.581 3.65516C17.071 3.14516 16.3627 2.8335 15.5835 2.8335H5.66683C4.91538 2.8335 4.19471 3.13201 3.66336 3.66336C3.13201 4.19471 2.8335 4.91538 2.8335 5.66683V15.5835C2.8335 16.3627 3.14516 17.071 3.66933 17.5952L16.4193 30.3452C16.9293 30.8552 17.6377 31.1668 18.4168 31.1668C19.196 31.1668 19.9043 30.8552 20.4143 30.331L30.331 20.4143C30.8552 19.9043 31.1668 19.196 31.1668 18.4168C31.1668 17.6377 30.841 16.9152 30.331 16.4052ZM7.79183 9.91683C7.22824 9.91683 6.68774 9.69295 6.28923 9.29443C5.89071 8.89592 5.66683 8.35541 5.66683 7.79183C5.66683 7.22824 5.89071 6.68774 6.28923 6.28923C6.68774 5.89071 7.22824 5.66683 7.79183 5.66683C8.35541 5.66683 8.89592 5.89071 9.29443 6.28923C9.69295 6.68774 9.91683 7.22824 9.91683 7.79183C9.91683 8.35541 9.69295 8.89592 9.29443 9.29443C8.89592 9.69295 8.35541 9.91683 7.79183 9.91683ZM24.466 21.6327L18.4168 27.6818L12.3677 21.6327C11.7302 20.981 11.3335 20.1027 11.3335 19.1252C11.3335 18.1859 11.7066 17.285 12.3708 16.6208C13.035 15.9566 13.9359 15.5835 14.8752 15.5835C15.8527 15.5835 16.7452 15.9802 17.3827 16.6318L18.4168 17.6518L19.451 16.6177C20.0885 15.9802 20.981 15.5835 21.9585 15.5835C22.8978 15.5835 23.7986 15.9566 24.4628 16.6208C25.127 17.285 25.5002 18.1859 25.5002 19.1252C25.5002 20.1027 25.1035 20.9952 24.466 21.6327Z" fill="black"/>
</svg>
