<svg width="34" height="34" viewBox="0 0 34 34" fill="none" xmlns="http://www.w3.org/2000/svg">
<path d="M30.3308 16.4049L17.5808 3.65492C17.0708 3.14492 16.3624 2.83325 15.5833 2.83325H5.66659C4.91514 2.83325 4.19447 3.13176 3.66312 3.66312C3.13176 4.19447 2.83325 4.91514 2.83325 5.66659V15.5833C2.83325 16.3624 3.14492 17.0708 3.66909 17.5949L16.4191 30.3449C16.9291 30.8549 17.6374 31.1666 18.4166 31.1666C19.1958 31.1666 19.9041 30.8549 20.4141 30.3308L30.3308 20.4141C30.8549 19.9041 31.1666 19.1958 31.1666 18.4166C31.1666 17.6374 30.8408 16.9149 30.3308 16.4049ZM7.79159 9.91659C7.228 9.91659 6.6875 9.6927 6.28898 9.29419C5.89047 8.89567 5.66659 8.35517 5.66659 7.79159C5.66659 7.228 5.89047 6.6875 6.28898 6.28898C6.6875 5.89047 7.228 5.66659 7.79159 5.66659C8.35517 5.66659 8.89567 5.89047 9.29419 6.28898C9.6927 6.6875 9.91659 7.228 9.91659 7.79159C9.91659 8.35517 9.6927 8.89567 9.29419 9.29419C8.89567 9.6927 8.35517 9.91659 7.79159 9.91659ZM24.4658 21.6324L18.4166 27.6816L12.3674 21.6324C11.7299 20.9808 11.3333 20.1024 11.3333 19.1249C11.3333 18.1856 11.7064 17.2848 12.3706 16.6206C13.0348 15.9564 13.9356 15.5833 14.8749 15.5833C15.8524 15.5833 16.7449 15.9799 17.3824 16.6316L18.4166 17.6516L19.4508 16.6174C20.0883 15.9799 20.9808 15.5833 21.9583 15.5833C22.8976 15.5833 23.7984 15.9564 24.4626 16.6206C25.1268 17.2848 25.4999 18.1856 25.4999 19.1249C25.4999 20.1024 25.1033 20.9949 24.4658 21.6324Z" fill="#F9F9F9"/>
</svg>
