<svg width="34" height="34" viewBox="0 0 34 34" fill="none" xmlns="http://www.w3.org/2000/svg">
<path d="M19.125 25.5001H5.66671V17.0001H20.2584C21.675 15.3001 23.8 14.1667 26.2084 14.1667C28.05 14.1667 29.75 14.8751 31.1667 16.0084V8.50008C31.1667 7.74863 30.8682 7.02797 30.3368 6.49661C29.8055 5.96526 29.0848 5.66675 28.3334 5.66675H5.66671C4.91526 5.66675 4.19459 5.96526 3.66324 6.49661C3.13188 7.02797 2.83337 7.74863 2.83337 8.50008V25.5001C2.83337 26.2515 3.13188 26.9722 3.66324 27.5035C4.19459 28.0349 4.91526 28.3334 5.66671 28.3334H20.6834C20.1167 27.4834 19.55 26.4917 19.125 25.5001ZM5.66671 8.50008H28.3334V11.3334H5.66671V8.50008ZM26.2084 17.0001C23.5167 17.0001 21.25 19.2667 21.25 21.9584C21.25 25.6417 26.2084 31.1667 26.2084 31.1667C26.2084 31.1667 31.1667 25.6417 31.1667 21.9584C31.1667 19.2667 28.9 17.0001 26.2084 17.0001ZM26.2084 23.8001C25.2167 23.8001 24.5084 22.9501 24.5084 22.1001C24.5084 21.1084 25.3584 20.4001 26.2084 20.4001C27.0584 20.4001 27.9084 21.2501 27.9084 22.1001C28.05 22.9501 27.2 23.8001 26.2084 23.8001Z" fill="white"/>
</svg>
