<svg width="34" height="34" viewBox="0 0 34 34" fill="none" xmlns="http://www.w3.org/2000/svg">
<path d="M19.125 25.5H5.66671V17H20.2584C21.675 15.3 23.8 14.1666 26.2084 14.1666C28.05 14.1666 29.75 14.875 31.1667 16.0083V8.49996C31.1667 7.74851 30.8682 7.02784 30.3368 6.49649C29.8055 5.96514 29.0848 5.66663 28.3334 5.66663H5.66671C4.91526 5.66663 4.19459 5.96514 3.66324 6.49649C3.13188 7.02784 2.83337 7.74851 2.83337 8.49996V25.5C2.83337 26.2514 3.13188 26.9721 3.66324 27.5034C4.19459 28.0348 4.91526 28.3333 5.66671 28.3333H20.6834C20.1167 27.4833 19.55 26.4916 19.125 25.5ZM5.66671 8.49996H28.3334V11.3333H5.66671V8.49996ZM26.2084 17C23.5167 17 21.25 19.2666 21.25 21.9583C21.25 25.6416 26.2084 31.1666 26.2084 31.1666C26.2084 31.1666 31.1667 25.6416 31.1667 21.9583C31.1667 19.2666 28.9 17 26.2084 17ZM26.2084 23.8C25.2167 23.8 24.5084 22.95 24.5084 22.1C24.5084 21.1083 25.3584 20.4 26.2084 20.4C27.0584 20.4 27.9084 21.25 27.9084 22.1C28.05 22.95 27.2 23.8 26.2084 23.8Z" fill="black"/>
</svg>
