<svg width="34" height="34" viewBox="0 0 34 34" fill="none" xmlns="http://www.w3.org/2000/svg">
<path d="M25.5 22.6665H19.8333V25.4998H25.5V28.3332L29.75 24.0832L25.5 19.8332V22.6665ZM15.5833 5.6665C12.4667 5.6665 9.91667 8.2165 9.91667 11.3332C9.91667 14.4498 12.4667 16.9998 15.5833 16.9998C18.7 16.9998 21.25 14.4498 21.25 11.3332C21.25 8.2165 18.7 5.6665 15.5833 5.6665ZM15.5833 8.49984C17.1417 8.49984 18.4167 9.77484 18.4167 11.3332C18.4167 12.8915 17.1417 14.1665 15.5833 14.1665C14.025 14.1665 12.75 12.8915 12.75 11.3332C12.75 9.77484 14.025 8.49984 15.5833 8.49984ZM15.5833 18.4165C11.7583 18.4165 4.25 20.2582 4.25 24.0832V28.3332H17.7083C17.2833 27.4832 17.1417 26.6332 17 25.6415H6.94167V24.0832C6.94167 23.2332 11.3333 21.1082 15.5833 21.1082C16.2917 21.1082 17 21.2498 17.7083 21.2498C18.1333 20.3998 18.5583 19.5498 19.2667 18.8415C17.85 18.5582 16.575 18.4165 15.5833 18.4165Z" fill="black"/>
</svg>
