<svg width="34" height="34" viewBox="0 0 34 34" fill="none" xmlns="http://www.w3.org/2000/svg">
<path d="M25.5 22.6667H19.8333V25.5001H25.5V28.3334L29.75 24.0834L25.5 19.8334V22.6667ZM15.5833 5.66675C12.4667 5.66675 9.91667 8.21675 9.91667 11.3334C9.91667 14.4501 12.4667 17.0001 15.5833 17.0001C18.7 17.0001 21.25 14.4501 21.25 11.3334C21.25 8.21675 18.7 5.66675 15.5833 5.66675ZM15.5833 8.50008C17.1417 8.50008 18.4167 9.77508 18.4167 11.3334C18.4167 12.8917 17.1417 14.1667 15.5833 14.1667C14.025 14.1667 12.75 12.8917 12.75 11.3334C12.75 9.77508 14.025 8.50008 15.5833 8.50008ZM15.5833 18.4167C11.7583 18.4167 4.25 20.2584 4.25 24.0834V28.3334H17.7083C17.2833 27.4834 17.1417 26.6334 17 25.6417H6.94167V24.0834C6.94167 23.2334 11.3333 21.1084 15.5833 21.1084C16.2917 21.1084 17 21.2501 17.7083 21.2501C18.1333 20.4001 18.5583 19.5501 19.2667 18.8417C17.85 18.5584 16.575 18.4167 15.5833 18.4167Z" fill="#F9F9F9"/>
</svg>
