<svg width="34" height="34" viewBox="0 0 34 34" fill="none" xmlns="http://www.w3.org/2000/svg">
<path d="M7.08333 26.9167V7.08333H17V17H26.9167V18.4167C27.9083 18.4167 28.8575 18.6008 29.75 18.9125V12.75L21.25 4.25H7.08333C5.51083 4.25 4.25 5.51083 4.25 7.08333V26.9167C4.25 28.475 5.51083 29.75 7.08333 29.75H18.9125C18.6008 28.8575 18.4167 27.9083 18.4167 26.9167H7.08333ZM19.8333 6.375L27.625 14.1667H19.8333V6.375ZM32.5833 25.5V28.3333H28.3333V32.5833H25.5V28.3333H21.25V25.5H25.5V21.25H28.3333V25.5H32.5833Z" fill="black"/>
</svg>
