<svg width="34" height="34" viewBox="0 0 34 34" fill="none" xmlns="http://www.w3.org/2000/svg">
<path d="M18.4166 22.1002C18.8416 22.3835 19.4082 22.3835 19.8332 22.1002L26.9166 17.9918V18.4168C27.9082 18.4168 28.8999 18.5585 29.7499 18.9835V16.4335L31.1666 15.5835C31.8749 15.1585 32.0166 14.3085 31.7332 13.6002L29.6082 10.0585C29.4666 9.77516 29.3249 9.49183 29.0416 9.35016L17.8499 3.11683C17.5666 2.97516 17.2832 2.8335 16.9999 2.8335C16.7166 2.8335 16.4332 2.97516 16.1499 3.11683L5.09991 9.35016C4.81658 9.49183 4.53325 9.6335 4.39158 9.91683L2.26658 13.6002C1.84158 14.3085 2.12491 15.1585 2.83325 15.5835C3.25825 15.8668 3.82491 15.8668 4.24991 15.5835V23.3752C4.24991 23.9418 4.53325 24.3668 4.95825 24.6502L16.1499 30.8835C16.4332 31.0252 16.7166 31.1668 16.9999 31.1668C17.2832 31.1668 17.5666 31.0252 17.8499 30.8835L19.1249 30.1752C18.6999 29.3252 18.5582 28.3335 18.4166 27.3418M15.5832 27.3418L7.08325 22.5252V13.0335L15.5832 17.8502V27.3418ZM28.4749 13.7418L19.5499 18.8418L18.6999 17.4252L27.6249 12.3252L28.4749 13.7418ZM16.9999 15.3002V5.95016L25.4999 10.6252L16.9999 15.3002ZM28.3332 21.2502V25.5002H32.5832V28.3335H28.3332V32.5835H25.4999V28.3335H21.2499V25.5002H25.4999V21.2502H28.3332Z" fill="black"/>
</svg>
