<svg width="34" height="34" viewBox="0 0 34 34" fill="none" xmlns="http://www.w3.org/2000/svg">
<path d="M18.4166 22.0999C18.8416 22.3833 19.4082 22.3833 19.8332 22.0999L26.9166 17.9916V18.4166C27.9082 18.4166 28.8999 18.5583 29.7499 18.9833V16.4333L31.1666 15.5833C31.8749 15.1583 32.0166 14.3083 31.7332 13.5999L29.6082 10.0583C29.4666 9.77492 29.3249 9.49158 29.0416 9.34992L17.8499 3.11659C17.5666 2.97492 17.2832 2.83325 16.9999 2.83325C16.7166 2.83325 16.4332 2.97492 16.1499 3.11659L5.09991 9.34992C4.81658 9.49158 4.53325 9.63325 4.39158 9.91659L2.26658 13.5999C1.84158 14.3083 2.12491 15.1583 2.83325 15.5833C3.25825 15.8666 3.82491 15.8666 4.24991 15.5833V23.3749C4.24991 23.9416 4.53325 24.3666 4.95825 24.6499L16.1499 30.8833C16.4332 31.0249 16.7166 31.1666 16.9999 31.1666C17.2832 31.1666 17.5666 31.0249 17.8499 30.8833L19.1249 30.1749C18.6999 29.3249 18.5582 28.3333 18.4166 27.3416M15.5832 27.3416L7.08325 22.5249V13.0333L15.5832 17.8499V27.3416ZM28.4749 13.7416L19.5499 18.8416L18.6999 17.4249L27.6249 12.3249L28.4749 13.7416ZM16.9999 15.2999V5.94992L25.4999 10.6249L16.9999 15.2999ZM28.3332 21.2499V25.4999H32.5832V28.3333H28.3332V32.5833H25.4999V28.3333H21.2499V25.4999H25.4999V21.2499H28.3332Z" fill="#F9F9F9"/>
</svg>
