<svg width="300" height="60" viewBox="0 0 300 60" fill="none" xmlns="http://www.w3.org/2000/svg">
<path d="M30 43.175L45.45 52.5L41.35 34.925L55 23.1L37.025 21.55L30 5L22.975 21.55L5 23.1L18.625 34.925L14.55 52.5L30 43.175Z" fill="#FF5207"/>
<path d="M150 43.175L165.45 52.5L161.35 34.925L175 23.1L157.025 21.55L150 5L142.975 21.55L125 23.1L138.625 34.925L134.55 52.5L150 43.175Z" fill="#FF5207"/>
<path d="M90 43.175L105.45 52.5L101.35 34.925L115 23.1L97.025 21.55L90 5L82.975 21.55L65 23.1L78.625 34.925L74.55 52.5L90 43.175Z" fill="#FF5207"/>
<path d="M210 43.175L225.45 52.5L221.35 34.925L235 23.1L217.025 21.55L210 5L202.975 21.55L185 23.1L198.625 34.925L194.55 52.5L210 43.175Z" fill="#FF5207"/>
<path d="M270 43.175L285.45 52.5L281.35 34.925L295 23.1L277.025 21.55L270 5L262.975 21.55L245 23.1L258.625 34.925L254.55 52.5L270 43.175Z" fill="#FF5207"/>
</svg>
