<svg width="34" height="34" viewBox="0 0 34 34" fill="none" xmlns="http://www.w3.org/2000/svg">
<path d="M29.75 15.5834C29.75 23.4459 24.31 30.7984 17 32.5834C9.69 30.7984 4.25 23.4459 4.25 15.5834V7.08341L17 1.41675L29.75 7.08341V15.5834ZM17 29.7501C22.3125 28.3334 26.9167 22.0151 26.9167 15.8951V8.92508L17 4.50508L7.08333 8.92508V15.8951C7.08333 22.0151 11.6875 28.3334 17 29.7501ZM20.9667 15.5834V13.4584C20.9667 11.4751 18.9833 9.91675 17 9.91675C15.0167 9.91675 13.0333 11.4751 13.0333 13.4584V15.5834C12.1833 15.5834 11.3333 16.4334 11.3333 17.2834V22.2417C11.3333 23.2334 12.1833 24.0834 13.0333 24.0834H20.825C21.8167 24.0834 22.6667 23.2334 22.6667 22.3834V17.4251C22.6667 16.4334 21.8167 15.5834 20.9667 15.5834ZM19.125 15.5834H14.875V13.4584C14.875 12.3251 15.8667 11.6167 17 11.6167C18.1333 11.6167 19.125 12.3251 19.125 13.4584V15.5834Z" fill="white"/>
</svg>
