<svg width="34" height="34" viewBox="0 0 34 34" fill="none" xmlns="http://www.w3.org/2000/svg">
<path d="M29.75 15.5832C29.75 23.4457 24.31 30.7982 17 32.5832C9.69 30.7982 4.25 23.4457 4.25 15.5832V7.08317L17 1.4165L29.75 7.08317V15.5832ZM17 29.7498C22.3125 28.3332 26.9167 22.0148 26.9167 15.8948V8.92484L17 4.50484L7.08333 8.92484V15.8948C7.08333 22.0148 11.6875 28.3332 17 29.7498ZM20.9667 15.5832V13.4582C20.9667 11.4748 18.9833 9.9165 17 9.9165C15.0167 9.9165 13.0333 11.4748 13.0333 13.4582V15.5832C12.1833 15.5832 11.3333 16.4332 11.3333 17.2832V22.2415C11.3333 23.2332 12.1833 24.0832 13.0333 24.0832H20.825C21.8167 24.0832 22.6667 23.2332 22.6667 22.3832V17.4248C22.6667 16.4332 21.8167 15.5832 20.9667 15.5832ZM19.125 15.5832H14.875V13.4582C14.875 12.3248 15.8667 11.6165 17 11.6165C18.1333 11.6165 19.125 12.3248 19.125 13.4582V15.5832Z" fill="black"/>
</svg>
