<svg width="23" height="24" viewBox="0 0 23 24" fill="none" xmlns="http://www.w3.org/2000/svg">
<path d="M17.25 16.08C16.5217 16.08 15.87 16.38 15.3717 16.85L8.53875 12.7C8.58667 12.47 8.625 12.24 8.625 12C8.625 11.76 8.58667 11.53 8.53875 11.3L15.295 7.19C15.8125 7.69 16.4929 8 17.25 8C18.0125 8 18.7438 7.68393 19.2829 7.12132C19.8221 6.55871 20.125 5.79565 20.125 5C20.125 4.20435 19.8221 3.44129 19.2829 2.87868C18.7438 2.31607 18.0125 2 17.25 2C16.4875 2 15.7562 2.31607 15.2171 2.87868C14.6779 3.44129 14.375 4.20435 14.375 5C14.375 5.24 14.4133 5.47 14.4612 5.7L7.705 9.81C7.1875 9.31 6.50708 9 5.75 9C4.9875 9 4.25624 9.31607 3.71707 9.87868C3.1779 10.4413 2.875 11.2044 2.875 12C2.875 12.7956 3.1779 13.5587 3.71707 14.1213C4.25624 14.6839 4.9875 15 5.75 15C6.50708 15 7.1875 14.69 7.705 14.19L14.5283 18.34C14.4804 18.55 14.4517 18.77 14.4517 19C14.4517 20.61 15.7071 21.91 17.25 21.91C18.7929 21.91 20.0483 20.61 20.0483 19C20.0483 18.2256 19.7535 17.4829 19.2287 16.9352C18.7039 16.3876 17.9922 16.08 17.25 16.08Z" fill="black"/>
</svg>
