<svg width="34" height="34" viewBox="0 0 34 34" fill="none" xmlns="http://www.w3.org/2000/svg">
<path d="M25.5 26.2083C26.6758 26.2083 27.625 25.2591 27.625 24.0833C27.625 22.9075 26.6758 21.9583 25.5 21.9583C24.3241 21.9583 23.375 22.9075 23.375 24.0833C23.375 25.2591 24.3241 26.2083 25.5 26.2083ZM27.625 13.4583H24.0833V17H30.4016L27.625 13.4583ZM8.49996 26.2083C9.67579 26.2083 10.625 25.2591 10.625 24.0833C10.625 22.9075 9.67579 21.9583 8.49996 21.9583C7.32413 21.9583 6.37496 22.9075 6.37496 24.0833C6.37496 25.2591 7.32413 26.2083 8.49996 26.2083ZM28.3333 11.3333L32.5833 17V24.0833H29.75C29.75 26.435 27.8516 28.3333 25.5 28.3333C23.1483 28.3333 21.25 26.435 21.25 24.0833H12.75C12.75 26.435 10.8516 28.3333 8.49996 28.3333C6.14829 28.3333 4.24996 26.435 4.24996 24.0833H1.41663V8.49996C1.41663 6.92746 2.67746 5.66663 4.24996 5.66663H24.0833V11.3333H28.3333ZM4.24996 8.49996V21.25H5.32663C6.10579 20.3858 7.23913 19.8333 8.49996 19.8333C9.76079 19.8333 10.8941 20.3858 11.6733 21.25H21.25V8.49996H4.24996ZM14.1666 9.91663L19.125 14.875L14.1666 19.8333V16.2916H7.08329V13.4583H14.1666V9.91663Z" fill="black"/>
</svg>
