<svg width="34" height="34" viewBox="0 0 34 34" fill="none" xmlns="http://www.w3.org/2000/svg">
<path d="M25.5 26.2084C26.6758 26.2084 27.625 25.2592 27.625 24.0834C27.625 22.9076 26.6758 21.9584 25.5 21.9584C24.3241 21.9584 23.375 22.9076 23.375 24.0834C23.375 25.2592 24.3241 26.2084 25.5 26.2084ZM27.625 13.4584H24.0833V17.0001H30.4016L27.625 13.4584ZM8.49996 26.2084C9.67579 26.2084 10.625 25.2592 10.625 24.0834C10.625 22.9076 9.67579 21.9584 8.49996 21.9584C7.32413 21.9584 6.37496 22.9076 6.37496 24.0834C6.37496 25.2592 7.32413 26.2084 8.49996 26.2084ZM28.3333 11.3334L32.5833 17.0001V24.0834H29.75C29.75 26.4351 27.8516 28.3334 25.5 28.3334C23.1483 28.3334 21.25 26.4351 21.25 24.0834H12.75C12.75 26.4351 10.8516 28.3334 8.49996 28.3334C6.14829 28.3334 4.24996 26.4351 4.24996 24.0834H1.41663V8.50008C1.41663 6.92758 2.67746 5.66675 4.24996 5.66675H24.0833V11.3334H28.3333ZM4.24996 8.50008V21.2501H5.32663C6.10579 20.3859 7.23913 19.8334 8.49996 19.8334C9.76079 19.8334 10.8941 20.3859 11.6733 21.2501H21.25V8.50008H4.24996ZM14.1666 9.91675L19.125 14.8751L14.1666 19.8334V16.2917H7.08329V13.4584H14.1666V9.91675Z" fill="white"/>
</svg>
