<svg width="34" height="34" viewBox="0 0 34 34" fill="none" xmlns="http://www.w3.org/2000/svg">
<path d="M29.7498 4.25H4.24984C3.49839 4.25 2.77772 4.54851 2.24637 5.07986C1.71501 5.61122 1.4165 6.33189 1.4165 7.08333V11.3333H4.24984V7.08333H29.7498V26.9167H19.8332V29.75H29.7498C30.5013 29.75 31.222 29.4515 31.7533 28.9201C32.2847 28.3888 32.5832 27.6681 32.5832 26.9167V7.08333C32.5832 6.33189 32.2847 5.61122 31.7533 5.07986C31.222 4.54851 30.5013 4.25 29.7498 4.25ZM1.4165 25.5V29.75H5.6665C5.6665 28.6228 5.21874 27.5418 4.42171 26.7448C3.62468 25.9478 2.54367 25.5 1.4165 25.5ZM1.4165 19.8333V22.6667C2.3467 22.6667 3.26779 22.8499 4.12718 23.2059C4.98657 23.5618 5.76743 24.0836 6.42518 24.7413C7.08293 25.3991 7.60468 26.1799 7.96065 27.0393C8.31662 27.8987 8.49984 28.8198 8.49984 29.75H11.3332C11.3332 27.1199 10.2884 24.5976 8.42865 22.7379C6.56891 20.8781 4.04657 19.8333 1.4165 19.8333ZM1.4165 14.1667V17C3.09086 17 4.74882 17.3298 6.29572 17.9705C7.84262 18.6113 9.24817 19.5504 10.4321 20.7344C11.6161 21.9183 12.5552 23.3239 13.196 24.8708C13.8367 26.4177 14.1665 28.0756 14.1665 29.75H16.9998C16.9998 21.1367 10.0157 14.1667 1.4165 14.1667ZM15.5832 15.7108V18.5442L20.5415 21.25L25.4998 18.5442V15.7108L20.5415 18.4167L15.5832 15.7108ZM20.5415 8.5L12.7498 12.75L20.5415 17L28.3332 12.75L20.5415 8.5Z" fill="black"/>
</svg>
