<svg width="34" height="34" viewBox="0 0 34 34" fill="none" xmlns="http://www.w3.org/2000/svg">
<path d="M29.7501 4.25H4.25008C3.49863 4.25 2.77797 4.54851 2.24661 5.07986C1.71526 5.61122 1.41675 6.33189 1.41675 7.08333V11.3333H4.25008V7.08333H29.7501V26.9167H19.8334V29.75H29.7501C30.5015 29.75 31.2222 29.4515 31.7535 28.9201C32.2849 28.3888 32.5834 27.6681 32.5834 26.9167V7.08333C32.5834 6.33189 32.2849 5.61122 31.7535 5.07986C31.2222 4.54851 30.5015 4.25 29.7501 4.25ZM1.41675 25.5V29.75H5.66675C5.66675 28.6228 5.21898 27.5418 4.42195 26.7448C3.62492 25.9478 2.54392 25.5 1.41675 25.5ZM1.41675 19.8333V22.6667C2.34694 22.6667 3.26803 22.8499 4.12742 23.2059C4.98681 23.5618 5.76767 24.0836 6.42542 24.7413C7.08317 25.3991 7.60492 26.1799 7.96089 27.0393C8.31687 27.8987 8.50008 28.8198 8.50008 29.75H11.3334C11.3334 27.1199 10.2886 24.5976 8.42889 22.7379C6.56915 20.8781 4.04681 19.8333 1.41675 19.8333ZM1.41675 14.1667V17C3.0911 17 4.74906 17.3298 6.29596 17.9705C7.84286 18.6113 9.24841 19.5504 10.4324 20.7344C11.6163 21.9183 12.5555 23.3239 13.1962 24.8708C13.837 26.4177 14.1667 28.0756 14.1667 29.75H17.0001C17.0001 21.1367 10.0159 14.1667 1.41675 14.1667ZM15.5834 15.7108V18.5442L20.5417 21.25L25.5001 18.5442V15.7108L20.5417 18.4167L15.5834 15.7108ZM20.5417 8.5L12.7501 12.75L20.5417 17L28.3334 12.75L20.5417 8.5Z" fill="#F9F9F9"/>
</svg>
