<svg width="34" height="34" viewBox="0 0 34 34" fill="none" xmlns="http://www.w3.org/2000/svg">
<path d="M17 1.4165L4.25 7.08317V15.5832C4.25 23.4457 9.69 30.7982 17 32.5832C24.31 30.7982 29.75 23.4457 29.75 15.5832V7.08317L17 1.4165ZM17 4.50484L26.9167 8.92484V15.8948C26.9167 18.3032 26.2083 20.754 25.0042 22.9073C22.6667 21.1648 18.785 20.5415 17 20.5415C15.215 20.5415 11.3333 21.1648 8.99583 22.9073C7.79167 20.754 7.08333 18.3032 7.08333 15.8948V8.92484L17 4.50484ZM17 8.49984C15.685 8.49984 14.4238 9.02223 13.4939 9.9521C12.5641 10.882 12.0417 12.1431 12.0417 13.4582C12.0417 14.7732 12.5641 16.0344 13.4939 16.9642C14.4238 17.8941 15.685 18.4165 17 18.4165C18.315 18.4165 19.5762 17.8941 20.5061 16.9642C21.4359 16.0344 21.9583 14.7732 21.9583 13.4582C21.9583 12.1431 21.4359 10.882 20.5061 9.9521C19.5762 9.02223 18.315 8.49984 17 8.49984ZM17 11.3332C17.5636 11.3332 18.1041 11.5571 18.5026 11.9556C18.9011 12.3541 19.125 12.8946 19.125 13.4582C19.125 14.0218 18.9011 14.5623 18.5026 14.9608C18.1041 15.3593 17.5636 15.5832 17 15.5832C16.4364 15.5832 15.8959 15.3593 15.4974 14.9608C15.0989 14.5623 14.875 14.0218 14.875 13.4582C14.875 12.8946 15.0989 12.3541 15.4974 11.9556C15.8959 11.5571 16.4364 11.3332 17 11.3332ZM17 23.3748C19.2242 23.3748 22.1567 24.239 23.4175 25.2732C21.6608 27.4548 19.4083 29.1123 17 29.7498C14.5917 29.1123 12.3392 27.4548 10.5825 25.2732C11.8575 24.239 14.7758 23.3748 17 23.3748Z" fill="black"/>
</svg>
