<svg width="34" height="34" viewBox="0 0 34 34" fill="none" xmlns="http://www.w3.org/2000/svg">
<path d="M17 1.41675L4.25 7.08341V15.5834C4.25 23.4459 9.69 30.7984 17 32.5834C24.31 30.7984 29.75 23.4459 29.75 15.5834V7.08341L17 1.41675ZM17 4.50508L26.9167 8.92508V15.8951C26.9167 18.3034 26.2083 20.7542 25.0042 22.9076C22.6667 21.1651 18.785 20.5417 17 20.5417C15.215 20.5417 11.3333 21.1651 8.99583 22.9076C7.79167 20.7542 7.08333 18.3034 7.08333 15.8951V8.92508L17 4.50508ZM17 8.50008C15.685 8.50008 14.4238 9.02248 13.4939 9.95234C12.5641 10.8822 12.0417 12.1434 12.0417 13.4584C12.0417 14.7734 12.5641 16.0346 13.4939 16.9645C14.4238 17.8944 15.685 18.4167 17 18.4167C18.315 18.4167 19.5762 17.8944 20.5061 16.9645C21.4359 16.0346 21.9583 14.7734 21.9583 13.4584C21.9583 12.1434 21.4359 10.8822 20.5061 9.95234C19.5762 9.02248 18.315 8.50008 17 8.50008ZM17 11.3334C17.5636 11.3334 18.1041 11.5573 18.5026 11.9558C18.9011 12.3543 19.125 12.8948 19.125 13.4584C19.125 14.022 18.9011 14.5625 18.5026 14.961C18.1041 15.3595 17.5636 15.5834 17 15.5834C16.4364 15.5834 15.8959 15.3595 15.4974 14.961C15.0989 14.5625 14.875 14.022 14.875 13.4584C14.875 12.8948 15.0989 12.3543 15.4974 11.9558C15.8959 11.5573 16.4364 11.3334 17 11.3334ZM17 23.3751C19.2242 23.3751 22.1567 24.2392 23.4175 25.2734C21.6608 27.4551 19.4083 29.1126 17 29.7501C14.5917 29.1126 12.3392 27.4551 10.5825 25.2734C11.8575 24.2392 14.7758 23.3751 17 23.3751Z" fill="#F9F9F9"/>
</svg>
