<svg width="34" height="34" viewBox="0 0 34 34" fill="none" xmlns="http://www.w3.org/2000/svg">
<path d="M17.0567 2.83337C9.32167 2.83337 3.01751 9.13754 3.01751 16.8725C3.01751 19.3517 3.66917 21.76 4.88751 23.885L2.90417 31.1667L10.3417 29.2117C12.3958 30.3309 14.705 30.9259 17.0567 30.9259C24.7917 30.9259 31.0958 24.6217 31.0958 16.8867C31.0958 13.1325 29.6367 9.60504 26.9875 6.95587C24.3383 4.29254 20.8108 2.83337 17.0567 2.83337ZM17.0708 5.19921C20.1875 5.19921 23.1058 6.41754 25.3158 8.62754C27.5117 10.8375 28.73 13.77 28.73 16.8867C28.73 23.3184 23.4883 28.5459 17.0567 28.5459C14.96 28.5459 12.9058 27.9934 11.1208 26.9167L10.6958 26.6759L6.27584 27.8375L7.45168 23.5309L7.16834 23.0775C6.00667 21.25 5.38334 19.0825 5.38334 16.8725C5.39751 10.4409 10.625 5.19921 17.0708 5.19921ZM12.0842 10.3842C11.8575 10.3842 11.475 10.4692 11.1492 10.8234C10.8375 11.1775 9.91667 12.0417 9.91667 13.7559C9.91667 15.4842 11.1775 17.1417 11.3333 17.3825C11.5317 17.6234 13.8267 21.165 17.3542 22.6667C18.19 23.0492 18.8417 23.2617 19.3517 23.4175C20.1875 23.6867 20.9525 23.6442 21.5617 23.5592C22.2417 23.46 23.63 22.7092 23.9275 21.8875C24.225 21.0659 24.225 20.3717 24.14 20.2159C24.0408 20.0742 23.8142 19.9892 23.46 19.8334C23.1058 19.635 21.3775 18.785 21.0658 18.6717C20.74 18.5584 20.5417 18.5017 20.2725 18.8417C20.0458 19.1959 19.3658 19.9892 19.1675 20.2159C18.955 20.4567 18.7567 20.485 18.4167 20.315C18.0483 20.1309 16.915 19.7625 15.5833 18.5725C14.535 17.6375 13.8408 16.49 13.6283 16.1359C13.4583 15.7959 13.6142 15.5834 13.7842 15.4275C13.94 15.2717 14.1667 15.0167 14.3083 14.8042C14.4925 14.6059 14.5492 14.45 14.6625 14.2234C14.7758 13.9825 14.7192 13.7842 14.6342 13.6142C14.5492 13.4584 13.8408 11.7017 13.5433 11.0075C13.26 10.3275 12.9767 10.4125 12.75 10.3984C12.5517 10.3984 12.325 10.3842 12.0842 10.3842Z" fill="black"/>
</svg>
